<?xml version="1.0" encoding="utf-8"?>
<!-- Generator: Adobe Illustrator 27.5.0, SVG Export Plug-In . SVG Version: 6.00 Build 0)  -->
<svg version="1.1" id="Layer_1" xmlns="http://www.w3.org/2000/svg" xmlns:xlink="http://www.w3.org/1999/xlink" x="0px" y="0px"
	 viewBox="0 0 512 512" style="enable-background:new 0 0 512 512;" xml:space="preserve">
<style type="text/css">
	.st0{fill:none;stroke:#E2E8F0;stroke-width:18;stroke-linecap:round;stroke-miterlimit:10;}
	.st1{fill:#FFFFFF;}
</style>
<symbol  id="a" viewBox="-171 -117 342.1 234">
	<path class="st0" d="M93.2-95.7c15.3-15.9,40.6-16.5,56.6-1.2c15.9,15.3,16.5,40.6,1.2,56.6c-7.6,7.9-18,12.3-28.9,12.3h-284
		 M-22.8,95.7c15.3,15.9,40.6,16.5,56.6,1.2s16.5-40.6,1.2-56.6C27.3,32.4,16.9,28,6,28h-168"/>
</symbol>
<g>
	<defs>
		<rect id="SVGID_1_" x="85" y="139" width="342" height="234"/>
	</defs>
	<clipPath id="SVGID_00000143602373919447512580000008443338399066317994_">
		<use xlink:href="#SVGID_1_"  style="overflow:visible;"/>
	</clipPath>
	<g style="clip-path:url(#SVGID_00000143602373919447512580000008443338399066317994_);">
		
			<use xlink:href="#a"  width="342.1" height="234" x="-171" y="-117" transform="matrix(1 0 0 1 256.0284 256)" style="overflow:visible;"/>
	</g>
</g>
<path class="st1" d="M406,334.2c-5.5,6.5-12.8,9.8-22,9.8s-16.5-3.3-21.8-9.8c-5.4-6.5-8.1-15.3-8.1-26.4c0-11,2.7-19.7,8-26.1
	c5.3-6.5,12.7-9.7,22-9.7c9.1,0,16.4,3.2,21.8,9.7c5.4,6.5,8.1,15.2,8,26.1c0.1,11.1-2.6,19.9-8,26.4H406z M384,330
	c8.4,0,12.6-7.3,12.6-22s-4.2-22-12.6-22s-12.6,7.3-12.6,22s4.2,22,12.7,22H384z"/>
</svg>
