<?xml version="1.0" encoding="utf-8"?>
<!-- Generator: Adobe Illustrator 27.5.0, SVG Export Plug-In . SVG Version: 6.00 Build 0)  -->
<svg version="1.1" id="Layer_1" xmlns="http://www.w3.org/2000/svg" xmlns:xlink="http://www.w3.org/1999/xlink" x="0px" y="0px"
	 viewBox="0 0 512 512" style="enable-background:new 0 0 512 512;" xml:space="preserve">
<style type="text/css">
	.st0{fill:none;stroke:#E2E8F0;stroke-width:18;stroke-linecap:round;stroke-miterlimit:10;stroke-dasharray:148;}
	.st1{fill:none;stroke:#E2E8F0;stroke-width:18;stroke-linecap:round;stroke-miterlimit:10;stroke-dasharray:110;}
	.st2{fill:#FFFFFF;}
</style>
<symbol  id="a" viewBox="-171 -117 342.1 234">
	<path class="st0" d="M93.2-95.7c15.3-15.9,40.6-16.5,56.6-1.2c15.9,15.3,16.5,40.6,1.2,56.6c-7.6,7.9-18,12.3-28.9,12.3h-284	">
<animate  accumulate="none" additive="replace" attributeName="stroke-dashoffset" calcMode="linear" dur="6s" fill="remove" repeatCount="indefinite" restart="always" values="0; 3552">
			</animate>
	</path>
	<path class="st1" d="M-22.8,95.7c15.3,15.9,40.6,16.5,56.6,1.2s16.5-40.6,1.2-56.6C27.3,32.4,16.9,28,6,28h-168	">
<animate  accumulate="none" additive="replace" attributeName="stroke-dashoffset" calcMode="linear" dur="6s" fill="remove" repeatCount="indefinite" restart="always" values="0; 1980">
			</animate>
	</path>
</symbol>
<g>
	<defs>
		<rect id="SVGID_1_" x="85" y="139" width="342" height="234"/>
	</defs>
	<clipPath id="SVGID_00000085216077225054717950000015632260003249189001_">
		<use xlink:href="#SVGID_1_"  style="overflow:visible;"/>
	</clipPath>
	<g style="clip-path:url(#SVGID_00000085216077225054717950000015632260003249189001_);">
		
			<use xlink:href="#a"  width="342.1" height="234" x="-171" y="-117" transform="matrix(1 0 0 1 256.0284 256)" style="overflow:visible;"/>
	</g>
</g>
<path class="st2" d="M405.4,338.1C400.1,342,393,344,384,344s-16.1-2-21.4-5.9c-5.1-3.7-8.1-9.7-7.9-16c-0.1-3.9,1.1-7.7,3.5-10.7
	c2.5-3,6-5.1,9.9-5.9v-0.2c-3-1-5.7-3-7.5-5.6c-1.8-2.6-2.8-5.8-2.7-9c-0.2-5.4,2.4-10.6,6.8-13.7c4.7-3.3,11.1-5,19.3-5
	c8.2,0,14.6,1.7,19.3,5c4.5,3.1,7.2,8.2,7,13.7c0.1,3.3-0.9,6.4-2.8,9.1c-1.8,2.6-4.4,4.5-7.4,5.5v0.3c3.8,0.9,7.3,2.9,9.8,5.9
	c2.4,3,3.6,6.8,3.5,10.6C413.6,328.4,410.6,334.4,405.4,338.1L405.4,338.1z M384.1,331.1c3.7,0,6.7-0.8,9-2.5
	c2.2-1.7,3.3-4.4,3.2-7.1c0.1-2.7-1-5.4-3.2-7.1c-2.2-1.7-5.2-2.5-9-2.5s-7,0.8-9.2,2.5c-2.1,1.7-3.3,4.3-3.2,7
	c-0.2,2.8,1.1,5.5,3.3,7.2c2.7,1.8,5.8,2.6,9,2.5H384.1z M384.1,300.8c3.3,0,5.9-0.8,7.8-2.3c1.9-1.4,3-3.7,2.9-6.1
	c0.1-2.3-0.9-4.6-2.8-6c-2.4-1.5-5.2-2.2-8-2c-7.1,0-10.7,2.7-10.7,8c-0.1,2.4,0.9,4.7,2.8,6.2C378,300,380.6,300.7,384.1,300.8
	L384.1,300.8z"/>
</svg>
