<?xml version="1.0" encoding="utf-8"?>
<!-- Generator: Adobe Illustrator 27.5.0, SVG Export Plug-In . SVG Version: 6.00 Build 0)  -->
<svg version="1.1" id="Layer_1" xmlns="http://www.w3.org/2000/svg" xmlns:xlink="http://www.w3.org/1999/xlink" x="0px" y="0px"
	 viewBox="0 0 512 512" style="enable-background:new 0 0 512 512;" xml:space="preserve">
<style type="text/css">
	.st0{fill:none;stroke:#E2E8F0;stroke-width:18;stroke-linecap:round;stroke-miterlimit:10;stroke-dasharray:148;}
	.st1{fill:none;stroke:#E2E8F0;stroke-width:18;stroke-linecap:round;stroke-miterlimit:10;stroke-dasharray:110;}
	.st2{fill:#FFFFFF;}
</style>
<symbol  id="a" viewBox="-171 -117 342.1 234">
	<path class="st0" d="M93.2-95.7c15.3-15.9,40.6-16.5,56.6-1.2c15.9,15.3,16.5,40.6,1.2,56.6c-7.6,7.9-18,12.3-28.9,12.3h-284	">
<animate  accumulate="none" additive="replace" attributeName="stroke-dashoffset" calcMode="linear" dur="6s" fill="remove" repeatCount="indefinite" restart="always" values="0; 2960">
			</animate>
	</path>
	<path class="st1" d="M-22.8,95.7c15.3,15.9,40.6,16.5,56.6,1.2s16.5-40.6,1.2-56.6C27.3,32.4,16.9,28,6,28h-168	">
<animate  accumulate="none" additive="replace" attributeName="stroke-dashoffset" calcMode="linear" dur="6s" fill="remove" repeatCount="indefinite" restart="always" values="0; 1540">
			</animate>
	</path>
</symbol>
<g>
	<defs>
		<rect id="SVGID_1_" x="85" y="139" width="342" height="234"/>
	</defs>
	<clipPath id="SVGID_00000118393350084718888280000003605599999781962140_">
		<use xlink:href="#SVGID_1_"  style="overflow:visible;"/>
	</clipPath>
	<g style="clip-path:url(#SVGID_00000118393350084718888280000003605599999781962140_);">
		
			<use xlink:href="#a"  width="342.1" height="234" x="-171" y="-117" transform="matrix(1 0 0 1 256.0284 256)" style="overflow:visible;"/>
	</g>
</g>
<path class="st2" d="M388.5,294.8c7.3,0,13.2,2.2,17.7,6.5c4.5,4.3,6.7,10.1,6.8,17.3c0,7.5-2.6,13.7-7.7,18.4
	c-5.1,4.7-11.9,7.1-20.2,7c-8.4,0-15.3-2.6-20.6-7.7c-6.3-6-9.5-15.2-9.5-27.7c0-11.7,2.5-20.7,7.6-27c5.1-6.3,12.5-9.5,22.2-9.6
	c6.7,0,12.3,1.5,16.8,4.6c4.5,3.1,7.7,7.7,9,13l-16.6,1c-1.4-3.7-4.5-5.6-9.3-5.6c-4,0-7,1.3-9,4s-3.2,7-3.7,13
	C375.9,297.2,381.4,294.8,388.5,294.8L388.5,294.8z M375.8,326.4c2.3,2.5,5.5,3.8,8.8,3.7c3.6,0,6.4-1.1,8.3-3.2
	c1.9-2.2,3-5.1,2.9-8c0.1-3-1-5.9-3.2-8c-2.2-2.1-5.2-3.2-8.2-3.1c-3-0.1-5.8,1-8,3c-2.1,2.2-3.4,5.1-3.4,8.2
	C373.1,321.7,374.1,324.3,375.8,326.4L375.8,326.4z"/>
</svg>
