<?xml version="1.0" encoding="utf-8"?>
<!-- Generator: Adobe Illustrator 27.5.0, SVG Export Plug-In . SVG Version: 6.00 Build 0)  -->
<svg version="1.1" id="Layer_1" xmlns="http://www.w3.org/2000/svg" xmlns:xlink="http://www.w3.org/1999/xlink" x="0px" y="0px"
	 viewBox="0 0 512 512" style="enable-background:new 0 0 512 512;" xml:space="preserve">
<style type="text/css">
	.st0{fill:none;stroke:#E2E8F0;stroke-width:18;stroke-linecap:round;stroke-miterlimit:10;stroke-dasharray:148;}
	.st1{fill:none;stroke:#E2E8F0;stroke-width:18;stroke-linecap:round;stroke-miterlimit:10;stroke-dasharray:110;}
	.st2{fill:#FFFFFF;}
</style>
<symbol  id="a" viewBox="-171 -117 342.1 234">
	<path class="st0" d="M93.2-95.7c15.3-15.9,40.6-16.5,56.6-1.2c15.9,15.3,16.5,40.6,1.2,56.6c-7.6,7.9-18,12.3-28.9,12.3h-284	">
<animate  accumulate="none" additive="replace" attributeName="stroke-dashoffset" calcMode="linear" dur="6s" fill="remove" repeatCount="indefinite" restart="always" values="0; 4736">
			</animate>
	</path>
	<path class="st1" d="M-22.8,95.7c15.3,15.9,40.6,16.5,56.6,1.2s16.5-40.6,1.2-56.6C27.3,32.4,16.9,28,6,28h-168	">
<animate  accumulate="none" additive="replace" attributeName="stroke-dashoffset" calcMode="linear" dur="6s" fill="remove" repeatCount="indefinite" restart="always" values="0; 2860">
			</animate>
	</path>
</symbol>
<g>
	<defs>
		<rect id="SVGID_1_" x="85" y="139" width="342" height="234"/>
	</defs>
	<clipPath id="SVGID_00000130619151250607380160000014958525939280085379_">
		<use xlink:href="#SVGID_1_"  style="overflow:visible;"/>
	</clipPath>
	<g style="clip-path:url(#SVGID_00000130619151250607380160000014958525939280085379_);">
		
			<use xlink:href="#a"  width="342.1" height="234" x="-171" y="-117" transform="matrix(1 0 0 1 256.0284 256)" style="overflow:visible;"/>
	</g>
</g>
<path class="st2" d="M367.5,344.4h-19v-45h-17.7v-12.6h3c5.2,0,9.3-1.1,12.3-3.4c2.9-2.1,4.7-5.5,5.6-10.2l0.2-0.8h15.5L367.5,344.4
	z M437.2,343.6h-55.7c0-6.3,1.3-11.5,4-15.7c2.7-4.1,7.6-8.6,14.9-13.5l10.9-7.7c2.3-1.5,4.2-3.3,5.8-5.5c1.2-1.7,1.8-3.7,1.8-5.8
	c0.1-2.5-0.8-4.9-2.6-6.7c-1.9-1.7-4.4-2.5-7-2.4c-6.7,0-10,3.9-10,11.8v1.4h-16.8v-2.1c0-8.1,2.4-14.5,7.1-19s11.5-6.8,20.2-6.8
	c8.3,0,14.8,2,19.7,6s7.3,9.5,7.4,16.6c0.1,4.4-1.2,8.6-3.5,12.3c-2.3,3.6-6.1,7.1-11.2,10.4l-12.1,7.7c-2.3,1.5-3.6,2.8-3.8,3.8h31
	L437.2,343.6z"/>
</svg>
