<?xml version="1.0" encoding="utf-8"?>
<!-- Generator: Adobe Illustrator 27.5.0, SVG Export Plug-In . SVG Version: 6.00 Build 0)  -->
<svg version="1.1" id="Layer_1" xmlns="http://www.w3.org/2000/svg" xmlns:xlink="http://www.w3.org/1999/xlink" x="0px" y="0px"
	 viewBox="0 0 512 512" style="enable-background:new 0 0 512 512;" xml:space="preserve">
<style type="text/css">
	.st0{fill:none;stroke:#E2E8F0;stroke-width:18;stroke-linecap:round;stroke-miterlimit:10;stroke-dasharray:148;}
	.st1{fill:none;stroke:#E2E8F0;stroke-width:18;stroke-linecap:round;stroke-miterlimit:10;stroke-dasharray:110;}
	.st2{fill:#FFFFFF;}
</style>
<symbol  id="a" viewBox="-171 -117 342.1 234">
	<path class="st0" d="M93.2-95.7c15.3-15.9,40.6-16.5,56.6-1.2c15.9,15.3,16.5,40.6,1.2,56.6c-7.6,7.9-18,12.3-28.9,12.3h-284	">
<animate  accumulate="none" additive="replace" attributeName="stroke-dashoffset" calcMode="linear" dur="6s" fill="remove" repeatCount="indefinite" restart="always" values="0; 2664">
			</animate>
	</path>
	<path class="st1" d="M-22.8,95.7c15.3,15.9,40.6,16.5,56.6,1.2s16.5-40.6,1.2-56.6C27.3,32.4,16.9,28,6,28h-168	">
<animate  accumulate="none" additive="replace" attributeName="stroke-dashoffset" calcMode="linear" dur="6s" fill="remove" repeatCount="indefinite" restart="always" values="0; 1320">
			</animate>
	</path>
</symbol>
<g>
	<defs>
		<rect id="SVGID_1_" x="85" y="139" width="342" height="234"/>
	</defs>
	<clipPath id="SVGID_00000017481813219185166320000010685173004358431158_">
		<use xlink:href="#SVGID_1_"  style="overflow:visible;"/>
	</clipPath>
	<g style="clip-path:url(#SVGID_00000017481813219185166320000010685173004358431158_);">
		
			<use xlink:href="#a"  width="342.1" height="234" x="-171" y="-117" transform="matrix(1 0 0 1 256.0284 256)" style="overflow:visible;"/>
	</g>
</g>
<path class="st2" d="M383.8,344c-8,0-14.6-1.8-19.7-5.5s-8.1-8.9-9-15.7l17.6-1.4c0.5,2.4,1.8,4.5,3.8,6c2.1,1.5,4.6,2.3,7.2,2.2
	c3.1,0.2,6.2-0.9,8.5-3c2.1-2.1,3.2-5,3-8c0.1-2.9-1-5.7-3-7.8c-2.3-2.1-5.4-3.2-8.5-3c-3.7-0.1-7.3,1.5-9.7,4.3l-16.6-1.5l6.4-38.6
	H408v14.7h-30.9l-2.3,12l0.3,0.2c3.7-2.7,8.5-4,14.2-4c7.1,0,12.8,2.1,17,6.2c4.2,4.1,6.4,9.8,6.6,17.1c0,7.9-2.6,14.1-7.8,18.8
	C399.9,341.7,392.8,344,383.8,344L383.8,344z"/>
</svg>
